<svg xmlns="http://www.w3.org/2000/svg" width="186.439" height="207.957" viewBox="0 0 186.439 207.957"><defs><style>.a,.b{fill:#242a33;}.a{stroke:#fdfeff;}.c{fill:#4a78a5;opacity:0.14;}</style></defs><g transform="translate(-868.796 -253.298)"><path class="a" d="M-282.562,206.728a23.431,23.431,0,0,1,4.633-34.825,23.446,23.446,0,0,1,34.438,10.666,7.005,7.005,0,0,0,.619-1.148c.8-2.581,2.61-4.094,4.954-5.334,4.409-2.332,8.618-5.047,13.053-7.325a4.01,4.01,0,0,0,2.377-3.424c1.047-6.355,2.267-12.681,3.383-19.025a3.577,3.577,0,0,1,1.865-2.749c2.366-1.326,4.658-2.786,7.015-4.129a1.814,1.814,0,0,0,1.046-1.833c-.048-4.461-.01-8.923-.027-13.385a2.41,2.41,0,0,1,1.67-2.6c1.548-.519,2.919.688,2.924,2.605q.025,9.893.011,19.787,0,40.082,0,80.166c0,.534.008,1.067,0,1.6-.041,1.907-.853,2.742-2.769,2.748-6.11.017-12.221.01-18.332.01l-96.461-.006c-2.28,0-3.377-.717-3.423-2.234q-.071-2.36,3.447-2.358c4.171,0,8.342-.037,12.512.026a2.285,2.285,0,0,0,2.216-1.21c2.426-3.741,4.876-7.469,7.448-11.11a4.618,4.618,0,0,1,2.5-1.69C-292.578,208.8-287.643,207.81-282.562,206.728Zm73.26,17.159v-79.7c-1.742,1.043-3.334,1.945-4.86,2.95a2,2,0,0,0-.608,1.223c-.7,3.663-1.363,7.332-2.026,11q-2.054,11.366-4.1,22.733c-.268,1.481-1.174,2.283-2.422,2.2a2.375,2.375,0,0,1-2.18-2.605c-.018-.921,0-1.843,0-2.765,0-1.46,0-2.921,0-4.6-3.88,2.216-7.474,4.22-11,6.33a4.809,4.809,0,0,0-1.791,1.938c-4.389,9.227-8.711,18.487-13.057,27.735-.715,1.521-1.72,2.15-2.885,1.846-1.212-.315-1.8-1.31-1.745-2.971.037-1.081.095-2.162.142-3.217a2.744,2.744,0,0,0-.538-.064q-19.476,4.087-38.944,8.212a2.852,2.852,0,0,0-1.56,1.1c-1.75,2.5-3.416,5.061-5.1,7.607a10.861,10.861,0,0,0-.536,1.051Zm-42.489-23.41c1.38-2.942,2.914-6.335,4.566-9.669a4.929,4.929,0,0,0,.365-3.5,18.567,18.567,0,0,0-21.718-14.292,17.712,17.712,0,0,0-14.345,12.929c-2.157,7.112-.328,13.377,4.823,18.705a2.176,2.176,0,0,0,2.3.7c6.24-1.375,12.5-2.677,18.755-3.973C-255.467,201.047-253.867,200.828-251.791,200.476Z" transform="translate(1211.603 232.216)"/><path class="a" d="M-286.645,111.006c-3.252-3.233-6.21-6.169-9.162-9.111-1.6-1.6-1.619-2.733-.005-4.313.793-.778,1.666-1.473,2.677-2.357-3.632-3.143-6.863-6.219-10.382-8.92-6.264-4.807-12.7-9.386-19.068-14.061-.819-.6-1.662-1.177-2.441-1.826a2.586,2.586,0,0,1-.883-2.883,2.5,2.5,0,0,1,2.436-1.741A39.89,39.89,0,0,1-309.8,67.163a70.681,70.681,0,0,1,22.687,10.855c1.332.925,1.68,1.857,1.113,2.89a2.712,2.712,0,0,1-3.578.922c-1.141-.634-2.2-1.413-3.309-2.107-7.084-4.434-14.558-7.886-22.921-9.1-.186-.027-.374-.031-.87-.069.539.441.843.726,1.181.961a253.8,253.8,0,0,1,26.41,21.431c1.706,1.567,1.753,2.63.115,4.254-.821.814-1.7,1.575-2.455,2.276l10.185,10.183c.664-.765,1.351-1.642,2.127-2.433,2.133-2.174,2.862-2.139,4.94.158A259.865,259.865,0,0,1-253.4,133.572c.264.381.556.741.835,1.112l.352-.114c-.288-1.479-.5-2.978-.876-4.435-2.48-9.706-7.421-18.15-13.447-26.026-.8-1.044-1.449-2.17-2.982-2.531-1.294-.3-1.553-2.13-.627-3.287.506-.633,1.108-1.19,1.611-1.722l-9.9-9.835c-.459.433-.992.982-1.574,1.474a2.268,2.268,0,0,1-3.153-.031,2.232,2.232,0,0,1-.068-3.149c1.077-1.18,2.208-2.321,3.391-3.395,1.115-1.012,2.264-.886,3.461.3q4.238,4.2,8.436,8.435a8.9,8.9,0,0,1,.823,1.105c2.643-1.6,3.1-3.375,1.4-5.551a18.47,18.47,0,0,0-3.4-3.118c-1.367-1.046-1.817-2.259-1.031-3.438.765-1.147,2.024-1.326,3.452-.458a14.746,14.746,0,0,1,5.333,5.247,7.545,7.545,0,0,1-1.427,9.9c-.206.2-.445.363-.718.584,1.412,1.921.385,3.239-.924,4.368,2.231,3.187,4.492,6.216,6.539,9.383,4.824,7.468,8.585,15.415,9.962,24.285a63.286,63.286,0,0,1,.452,8.255c.031,1.364-.4,2.658-1.9,3.106a2.918,2.918,0,0,1-3.359-1.443c-3.047-4.316-5.911-8.771-9.145-12.94-4.777-6.159-9.812-12.119-15.1-18.606-.934,1.138-1.55,2-2.28,2.757-1.716,1.775-2.4,1.816-4.438.357-1.763,1.691-3.546,3.394-5.322,5.1q-26.415,25.425-52.817,50.862c-1.864,1.8-3.962,2.808-6.558,2.355a6.587,6.587,0,0,1-5.525-4.764,6.809,6.809,0,0,1,1.675-7.123q7.1-7.4,14.22-14.785,18.259-18.976,36.518-37.95a11.038,11.038,0,0,1,1.032-1.022,2.1,2.1,0,0,1,2.911.022,2.325,2.325,0,0,1,.364,3.033,8.026,8.026,0,0,1-.871.973q-25.015,26-50.031,52a8.4,8.4,0,0,0-1.159,1.3,2.393,2.393,0,0,0,.232,3.081,2.411,2.411,0,0,0,3.184.286,7.2,7.2,0,0,0,.867-.773q28.518-27.436,57.04-54.867A10.075,10.075,0,0,1-286.645,111.006Z" transform="translate(1223.597 255.556)"/><path class="a" d="M-161.015,127.6q0,5.377,0,10.755c0,1.957-.857,3.057-2.333,3.023-1.427-.033-2.259-1.117-2.259-2.961q0-10.974,0-21.946c0-1.839.849-2.936,2.268-2.957s2.326,1.076,2.331,2.9c.012,3.731,0,7.461,0,11.191Z" transform="translate(1144.73 235.554)"/><path class="a" d="M-214.952,180.944c.049,2.369-1.744,3.4-3.532,2.526-3.7-1.806-7.371-3.665-11.053-5.5-2.556-1.276-5.118-2.542-7.665-3.833-1.533-.778-2.078-2.04-1.471-3.292s1.95-1.575,3.493-.807c6.2,3.083,12.4,6.158,18.567,9.312A6.857,6.857,0,0,1-214.952,180.944Z" transform="translate(1175.371 212.099)"/><path class="a" d="M-121.028,102.209c0,.725.031,1.452-.006,2.176a2.343,2.343,0,0,1-2.25,2.379,2.29,2.29,0,0,1-2.322-2.3c-.062-1.545-.058-3.1,0-4.641a2.281,2.281,0,0,1,2.312-2.3,2.32,2.32,0,0,1,2.254,2.365c.038.772.006,1.547.006,2.321Z" transform="translate(1128.027 242.238)"/><path class="b" d="M1.2-7.2a33.231,33.231,0,0,1,1.56-3.075q.99-1.755,2.235-3.615t2.67-3.66a37.453,37.453,0,0,1,2.865-3.24H13.2v13.2h2.46v2.28H13.2V0H10.5V-5.31H1.2Zm9.3-10.29q-.9.96-1.815,2.145T6.9-12.87q-.87,1.29-1.635,2.64T3.9-7.59h6.6Z" transform="matrix(0.883, -0.469, 0.469, 0.883, 916.012, 302.179)"/><path class="b" d="M1.2-7.2a33.231,33.231,0,0,1,1.56-3.075q.99-1.755,2.235-3.615t2.67-3.66a37.453,37.453,0,0,1,2.865-3.24H13.2v13.2h2.46v2.28H13.2V0H10.5V-5.31H1.2Zm9.3-10.29q-.9.96-1.815,2.145T6.9-12.87q-.87,1.29-1.635,2.64T3.9-7.59h6.6Z" transform="matrix(0.974, 0.225, -0.225, 0.974, 1035.3, 273.285)"/><path class="b" d="M1.5-10.41q0-5.22,1.845-8.04A5.8,5.8,0,0,1,8.46-21.27a5.8,5.8,0,0,1,5.115,2.82q1.845,2.82,1.845,8.04T13.575-2.37A5.8,5.8,0,0,1,8.46.45,5.8,5.8,0,0,1,3.345-2.37Q1.5-5.19,1.5-10.41Zm10.98,0a25.647,25.647,0,0,0-.2-3.24,10.643,10.643,0,0,0-.66-2.67,4.689,4.689,0,0,0-1.245-1.815,2.831,2.831,0,0,0-1.92-.675,2.831,2.831,0,0,0-1.92.675A4.689,4.689,0,0,0,5.295-16.32a10.643,10.643,0,0,0-.66,2.67,25.648,25.648,0,0,0-.195,3.24,25.648,25.648,0,0,0,.195,3.24,10.643,10.643,0,0,0,.66,2.67A4.689,4.689,0,0,0,6.54-2.685a2.831,2.831,0,0,0,1.92.675,2.831,2.831,0,0,0,1.92-.675A4.689,4.689,0,0,0,11.625-4.5a10.643,10.643,0,0,0,.66-2.67A25.647,25.647,0,0,0,12.48-10.41Z" transform="matrix(0.978, 0.208, -0.208, 0.978, 978.156, 319.909)"/><path class="c" d="M10.85-23.03l44.309-2.2L67.882-51.7,76.2-54.846l9.974,5.5,5.063-36.18,5.732-6.4v79.395H4.131Z" transform="translate(907.994 471.228)"/></g></svg>