<svg xmlns="http://www.w3.org/2000/svg" width="66" height="66" viewBox="0 0 66 66"><defs><style>.a{fill:#ffc400;}.b{fill:#fff;}</style></defs><circle class="a" cx="33" cy="33" r="33"/><path class="b" d="M120.956,1726.289c.141-.583.259-1.1.39-1.614a2.007,2.007,0,0,1,2.407-1.607,2.064,2.064,0,0,1,1.451,2.584c-.116.518-.247,1.031-.38,1.582l2.894.733c.118-.487.23-.967.349-1.446a2.029,2.029,0,0,1,2.457-1.735,2.083,2.083,0,0,1,1.394,2.744c-.127.533-.257,1.065-.383,1.589a6.392,6.392,0,0,1,1.569,9.768c1.887,2.478,2.278,5.141.517,7.838-1.652,2.53-4.064,3.21-6.935,2.516q-.178.737-.357,1.479a2.025,2.025,0,0,1-2.471,1.711,2.08,2.08,0,0,1-1.4-2.662c.113-.485.232-.968.359-1.49l-2.894-.733c-.122.506-.24,1.018-.369,1.527a2.011,2.011,0,0,1-2.471,1.641,2.064,2.064,0,0,1-1.385-2.622c.115-.5.24-1,.376-1.564-.5-.127-.98-.245-1.455-.369a2.061,2.061,0,0,1-1.636-2.508,2.012,2.012,0,0,1,2.594-1.5c.466.111.929.234,1.428.361l2.947-12.222c-.5-.126-.991-.245-1.483-.377a2.064,2.064,0,0,1-1.559-2.559,2,2,0,0,1,2.544-1.444C119.94,1726.029,120.419,1726.153,120.956,1726.289Zm2.927,5-2.945,12.214c2.364.6,4.693,1.194,7.024,1.777a2.123,2.123,0,0,0,2.7-1.53,2.182,2.182,0,0,0-1.7-2.678c-.947-.248-1.9-.476-2.845-.724a2.063,2.063,0,0,1-1.587-2.541,2.016,2.016,0,0,1,2.576-1.464,10.45,10.45,0,0,0,1.553.319,1.97,1.97,0,0,0,2.054-1.638,2.023,2.023,0,0,0-1.35-2.336C127.556,1732.2,125.734,1731.762,123.883,1731.294Z" transform="translate(-90.762 -1705.07)"/></svg>