<svg xmlns="http://www.w3.org/2000/svg" width="70" height="46.393" viewBox="0 0 70 46.393"><defs><style>.a{fill:#4A6DFF;}</style></defs><g transform="translate(0 -86.333)"><g transform="translate(0 86.333)"><path class="a" d="M69.253,103.673l-.533-2.047-2.029.595a3.778,3.778,0,0,1-4.724-4.588l-2.675-2.675a3.783,3.783,0,0,1-4.505-4.976l.764-2.053-2.1-.627A23.2,23.2,0,0,0,35,89.568a23.2,23.2,0,1,0,0,39.923,23.2,23.2,0,0,0,34.253-25.818ZM23.2,128.625a19.1,19.1,0,1,1,8.139-36.366,23.161,23.161,0,0,0,0,34.542A18.98,18.98,0,0,1,23.2,128.625Zm23.607,0a19.1,19.1,0,1,1,3.662-37.838q-.017.256-.017.514a7.9,7.9,0,0,0,7.312,7.864,7.9,7.9,0,0,0,7.864,7.312h.03A19.11,19.11,0,0,1,46.8,128.625Z" transform="translate(0 -86.333)"/></g><g transform="translate(40.849 98.607)"><rect class="a" width="4.102" height="4.102" transform="translate(0 2.9) rotate(-45)"/></g><g transform="translate(17.097 118.297)"><rect class="a" width="4.102" height="4.102" transform="translate(0 2.9) rotate(-45)"/></g><g transform="translate(17.097 94.963)"><rect class="a" width="4.102" height="4.102" transform="translate(0 2.9) rotate(-45)"/></g><g transform="translate(33.548 105.909)"><rect class="a" width="4.102" height="4.102" transform="translate(0 2.9) rotate(-45)"/></g><g transform="translate(44.616 109.666)"><path class="a" d="M332.031,257a5.7,5.7,0,1,0,5.7,5.7A5.7,5.7,0,0,0,332.031,257Zm0,7.292a1.6,1.6,0,1,1,1.6-1.6A1.6,1.6,0,0,1,332.031,264.292Z" transform="translate(-326.334 -257)"/></g><g transform="translate(7.747 103.833)"><path class="a" d="M62.364,214.333a5.7,5.7,0,1,0,5.7,5.7A5.7,5.7,0,0,0,62.364,214.333Zm0,7.292a1.6,1.6,0,1,1,1.6-1.6A1.6,1.6,0,0,1,62.364,221.625Z" transform="translate(-56.667 -214.333)"/></g></g></svg>