<svg xmlns="http://www.w3.org/2000/svg" width="66.178" height="66.178" viewBox="0 0 66.178 66.178"><defs><style>.a{fill:#0a8fff;}.b{fill:#fff;}</style></defs><g transform="translate(0 0)"><g transform="translate(0 0)"><circle class="a" cx="33.089" cy="33.089" r="33.089"/></g><g transform="translate(20.01 22.793)"><path class="b" d="M-2.1,114.271c-.331,1.385-.64,2.779-1,4.155-.583,2.25-1.17,4.5-1.806,6.73a7.879,7.879,0,0,1-4.923,5.533,5.083,5.083,0,0,1-1.783.238c-6.408.016-10.748.011-17.156.01-.084,0-.168-.012-.285-.02.228-.864.449-1.7.67-2.534.194-.731.4-1.456.577-2.194.074-.313.188-.414.474-.413,5.845.011,9.622,0,15.467.019.336,0,.46-.116.554-.477.819-3.142,1.656-6.278,2.488-9.417.034-.127.062-.256.1-.427h-16.07c.027-.137.04-.233.064-.325.4-1.515.81-3.028,1.207-4.545.056-.214.129-.3.337-.3,6.661.007,11.253,0,17.914.01,1.59,0,2.718,1.06,3.111,2.857a1.257,1.257,0,0,0,.055.155Z" transform="translate(29.048 -110.304)"/><path class="b" d="M-28.3,227.817c-.42,1.523-.832,3-1.234,4.488-.054.2-.162.216-.315.215-.88,0-1.759,0-2.639,0h-8.365a2.124,2.124,0,0,1,.035-.243c.387-1.408.781-2.814,1.161-4.224.054-.2.138-.258.318-.258q5.414.008,10.828,0C-28.457,227.8-28.4,227.809-28.3,227.817Z" transform="translate(41.487 -219.853)"/></g></g></svg>