<svg xmlns="http://www.w3.org/2000/svg" width="40" height="40" viewBox="0 0 40 40"><defs><style>.a,.b{fill:#0ecbfd;}.a{opacity:0.15;}</style></defs><g transform="translate(14.812 12.562)"><path class="a" d="M9,0H31a9,9,0,0,1,9,9V31a9,9,0,0,1-9,9H9a9,9,0,0,1-9-9V9A9,9,0,0,1,9,0Z" transform="translate(-14.812 -12.562)"/><path class="b" d="M124.329,74.952h-2.171a4.931,4.931,0,0,0-4.925,4.925V81.89h-1.944a1.4,1.4,0,1,0,0,2.8h1.944V90.2a1.4,1.4,0,0,0,2.8,0V84.69h3.636a1.4,1.4,0,1,0,0-2.8h-3.636V79.877a2.128,2.128,0,0,1,2.126-2.126h2.171a1.4,1.4,0,0,0,0-2.8Z" transform="translate(-113.888 -74.952)"/></g></svg>