<svg xmlns="http://www.w3.org/2000/svg" width="108.078" height="99.531" viewBox="0 0 108.078 99.531"><defs><style>.a,.b{fill:#0ecbfd;}.a{opacity:0.1;}.b{stroke:#0ecbfd;stroke-width:2.4px;}</style></defs><g transform="translate(-372.182 -460.996)"><path class="a" d="M51.664,8.977c37.01,33.744,49.154,27.661,45.881,49.976s-61.6,44.424-87.823,15.44S14.654-24.767,51.664,8.977Z" transform="translate(372.182 472.946) rotate(-7)"/><g transform="translate(392.949 492.926)"><g transform="translate(0.05 -2.706)"><path class="b" d="M54.945,114.462c-3.18.024-.16,0-.16,0h-5.94V90.682c0-1.176-2.428-2.341-4.086-2.341s-4,1.166-4,2.341v23.78H32.512V97.826c0-1.176-2.444-2.221-4.1-2.221s-3.985,1.045-3.985,2.221v16.636h-8.1V101.477c0-1.176-2.461-2.2-4.119-2.2s-3.969,1.026-3.969,2.2v12.985H3.075c-1.658,0-3.025.969-3.025,2.145s1.367,2.145,3.025,2.145h51.71c1.658,0,3.095-.022,3.17-2.145C57.97,115.422,56.6,114.462,54.945,114.462Z" transform="translate(-0.05 -64.849)"/><path class="b" d="M29.547,24.24c.69-.113,16.573-3.81,28.817-16.087v4.556a2.364,2.364,0,0,0,2.351,2.351A2.391,2.391,0,0,0,63.066,12.6L64.649,1.645A2.364,2.364,0,0,0,62.3-.706L50.371.013a2.364,2.364,0,0,0-2.351,2.351,2.364,2.364,0,0,0,2.351,2.351h4.85C43.984,16.27,28.609,19.888,28.5,19.888a2.227,2.227,0,0,0-1.775,2.7A2.3,2.3,0,0,0,29.547,24.24Z" transform="translate(-22.65 2.706)"/></g></g></g></svg>