<svg xmlns="http://www.w3.org/2000/svg" width="23.095" height="23.095" viewBox="0 0 23.095 23.095"><defs><style>.a{fill:#b1b9c4;}</style></defs><g transform="translate(-1.807 -1.496)"><path class="a" d="M11.547,0A11.547,11.547,0,1,0,23.095,11.548,11.561,11.561,0,0,0,11.547,0Zm0,21A9.448,9.448,0,1,1,21,11.548,9.459,9.459,0,0,1,11.547,21Z" transform="translate(1.807 1.496)"/><path class="a" d="M146.7,70a1.7,1.7,0,1,0,1.7,1.7A1.7,1.7,0,0,0,146.7,70Z" transform="translate(-133.189 -61.921)"/><path class="a" d="M151.273,140A1.273,1.273,0,0,0,150,141.273v3.819a1.273,1.273,0,1,0,2.546,0v-3.819A1.273,1.273,0,0,0,151.273,140Z" transform="translate(-137.763 -127.253)"/></g></svg>