<svg xmlns="http://www.w3.org/2000/svg" width="49" height="49" viewBox="0 0 49 49"><defs><style>.a,.b{fill:#0ecbfd;}.a{opacity:0.15;}</style></defs><g transform="translate(11.778 12.562)"><rect class="a" width="49" height="49" rx="9" transform="translate(-11.778 -12.562)"/><g transform="translate(1.572 0.612)"><g transform="translate(8.482 6.133)"><g transform="translate(0 0)"><path class="b" d="M226.874,156.142c-.845-.868-2.128-1.268-4.034-1.268A7.057,7.057,0,0,0,219,156.239c-.044.03-.089.059-.126.089v-.541a1.186,1.186,0,0,0-2.373,0v3.441a1.227,1.227,0,0,0,.022.237l-.015,7.009a1.186,1.186,0,1,0,2.373,0l.015-6.95a6.049,6.049,0,0,1,3.945-2.276,3.436,3.436,0,0,1,2.343.556c.534.541.519,1.854.5,3.522-.007.334-.007.682-.007,1.046v4.548a1.186,1.186,0,0,0,2.373,0v-4.54c0-.349.007-.69.007-1.016C228.075,159.227,228.1,157.388,226.874,156.142Z" transform="translate(-216.5 -154.6)"/></g></g><g transform="translate(2.821 6.141)"><g transform="translate(0 0)"><path class="b" d="M109.486,154.7a1.19,1.19,0,0,0-1.186,1.186v10.66a1.186,1.186,0,0,0,2.373,0v-10.66A1.185,1.185,0,0,0,109.486,154.7Z" transform="translate(-108.3 -154.7)"/></g></g><g transform="translate(2.65 2.826)"><path class="b" d="M107.35,110a1.342,1.342,0,1,0,1.342,1.357v-.015A1.337,1.337,0,0,0,107.35,110Z" transform="translate(-106 -110)"/></g></g></g></svg>