<svg xmlns="http://www.w3.org/2000/svg" width="108.078" height="99.531" viewBox="0 0 108.078 99.531"><defs><style>.a{opacity:0.7;}.b,.c{fill:#4A6DFF;}.b{opacity:0.1;}</style></defs><g class="a" transform="translate(-1090.182 -460.996)"><path class="b" d="M51.664,8.977c37.01,33.744,49.154,27.661,45.881,49.976s-61.6,44.424-87.823,15.44S14.654-24.767,51.664,8.977Z" transform="translate(1090.182 472.946) rotate(-7)"/><path class="c" d="M-15733.424,1545.785a17.55,17.55,0,0,1-12.428-5.094,17.194,17.194,0,0,1-5.146-12.3,17.194,17.194,0,0,1,5.146-12.3,17.55,17.55,0,0,1,12.428-5.094,17.557,17.557,0,0,1,12.428,5.094,17.191,17.191,0,0,1,5.147,12.3,17.191,17.191,0,0,1-5.147,12.3A17.557,17.557,0,0,1-15733.424,1545.785Zm-.063-24.987a1.165,1.165,0,0,0-1.055.664l-1.617,3.328a.285.285,0,0,1-.222.166l-3.612.534a1.18,1.18,0,0,0-.945.8,1.187,1.187,0,0,0,.293,1.218l2.617,2.593a.318.318,0,0,1,.087.273l-.621,3.661a1.178,1.178,0,0,0,.479,1.162,1.127,1.127,0,0,0,.68.225,1.149,1.149,0,0,0,.55-.142l3.233-1.727a.289.289,0,0,1,.133-.033.307.307,0,0,1,.136.033l3.229,1.727a1.158,1.158,0,0,0,.554.138,1.144,1.144,0,0,0,.676-.221,1.178,1.178,0,0,0,.479-1.162l-.617-3.661a.3.3,0,0,1,.087-.273l2.613-2.593a1.18,1.18,0,0,0,.293-1.218,1.171,1.171,0,0,0-.945-.8l-3.613-.534a.285.285,0,0,1-.221-.166l-1.617-3.328A1.161,1.161,0,0,0-15733.487,1520.8Z" transform="translate(16872 -1002.245)"/><g transform="translate(1398.633 485.574)"><path class="c" d="M92.549,14.543l3.579-5.878S97.2,6.724,97.75,5.5s.162-1.508.162-1.508A1.939,1.939,0,0,0,96.184,3H82.62A1.971,1.971,0,0,0,81,3.815a1.609,1.609,0,0,0-.1,1.682l9.532,13.072Z" transform="translate(-361 0.26)"/><path class="c" d="M197.251,3.844a2.059,2.059,0,0,0-1.623-.725L181.321,3a1.994,1.994,0,0,0-1.728.879l-8.5,15.237c-.008.014-.009.027-.017.041-.017.03-.024.064-.039.1a.95.95,0,0,0,0,.815.491.491,0,0,0,.674.195,24.679,24.679,0,0,1,8.211-.823,17.75,17.75,0,0,1,7.635,2.9c.362.227.582.38.965.254s.568-.756.568-.756L197.356,5.34A1.3,1.3,0,0,0,197.251,3.844Z" transform="translate(-437.727 0.26)"/></g></g></svg>