<svg xmlns="http://www.w3.org/2000/svg" width="13.91" height="16" viewBox="0 0 13.91 16"><defs><style>.a{fill:#0ecbfd;}</style></defs><g transform="translate(-39.974 0.001)"><path class="a" d="M53.625,8.328a.885.885,0,0,0-1.252,0L47.451,13.25a3.343,3.343,0,1,1-4.728-4.728L49.043,2.2a1.484,1.484,0,1,1,2.1,2.1L45.78,9.664a.885.885,0,0,0,1.252,1.252l5.362-5.362a3.255,3.255,0,1,0-4.6-4.6L41.472,7.27A5.113,5.113,0,1,0,48.7,14.5L53.625,9.58A.885.885,0,0,0,53.625,8.328Z" transform="translate(0 0)"/></g></svg>