<svg xmlns="http://www.w3.org/2000/svg" width="66" height="66" viewBox="0 0 66 66"><defs><style>.a{fill:#33c0ff;}.b{fill:#fff;}</style></defs><g transform="translate(-0.304)"><circle class="a" cx="33" cy="33" r="33" transform="translate(0.304)"/><g transform="translate(17.304 20)"><path class="b" d="M52.733,58.03a7.211,7.211,0,0,0-3.419-.826,2.422,2.422,0,0,1-2.459-2.462,2.5,2.5,0,0,1,2.46-2.462,7.211,7.211,0,0,0,3.418-.827,6.23,6.23,0,1,0-9.345-5.395,7.155,7.155,0,0,0,.977,3.348,2.429,2.429,0,0,1-.886,3.387,2.5,2.5,0,0,1-3.375-.924,7.16,7.16,0,0,0-2.412-2.523,6.23,6.23,0,1,0,0,10.79A7.157,7.157,0,0,0,40.1,57.615a2.424,2.424,0,0,1,3.376-.925,2.5,2.5,0,0,1,.886,3.388,7.153,7.153,0,0,0-.976,3.347,6.23,6.23,0,1,0,9.345-5.4Z" transform="translate(-28.347 -39.827)"/></g></g></svg>