<svg xmlns="http://www.w3.org/2000/svg" width="108.078" height="99.531" viewBox="0 0 108.078 99.531"><defs><style>.a,.c{fill:#4A6DFF;}.a{opacity:0.1;}.b{fill:none;}</style></defs><g transform="translate(-734.182 -460.996)"><path class="a" d="M51.664,8.977c37.01,33.744,49.154,27.661,45.881,49.976s-61.6,44.424-87.823,15.44S14.654-24.767,51.664,8.977Z" transform="translate(734.182 472.946) rotate(-7)"/><g transform="translate(742 481.312)"><path class="b" d="M0,0H77.688V77.688H0Z"/><path class="c" d="M48.937,27.659a8.093,8.093,0,1,0-8.093-8.093A8.068,8.068,0,0,0,48.937,27.659ZM24.659,24.422a9.711,9.711,0,1,0-9.711-9.711A9.671,9.671,0,0,0,24.659,24.422Zm24.278,9.711c-5.924,0-17.8,2.978-17.8,8.9v6.046a3.247,3.247,0,0,0,3.237,3.237H63.5a3.247,3.247,0,0,0,3.237-3.237V43.035C66.74,37.111,54.861,34.133,48.937,34.133ZM24.659,30.9C17.117,30.9,2,34.683,2,42.226v6.856a3.247,3.247,0,0,0,3.237,3.237H24.659V43.035c0-2.751,1.068-7.575,7.672-11.232A39.761,39.761,0,0,0,24.659,30.9Z" transform="translate(4.474 11.185)"/></g></g></svg>