<svg xmlns="http://www.w3.org/2000/svg" width="362" height="361" viewBox="0 0 362 361"><defs><style>.a{opacity:0.822;}.b{fill:#4A6DFF;}</style></defs><g class="a" transform="translate(0 -0.002)"><g transform="translate(0 168.932)"><path class="b" d="M355.966,238.931H6.033A6.035,6.035,0,0,0,0,244.964V269.1a6.035,6.035,0,0,0,6.033,6.033H355.965A6.035,6.035,0,0,0,362,269.1V244.964A6.034,6.034,0,0,0,355.966,238.931Zm-6.034,24.134H12.067V251H349.933v12.067Z" transform="translate(0 -238.931)"/></g><g transform="translate(120.667 193.065)"><path class="b" d="M285.3,273.065H176.7a6.035,6.035,0,0,0-6.033,6.033v48.267A6.035,6.035,0,0,0,176.7,333.4H285.3a6.035,6.035,0,0,0,6.033-6.033V279.1A6.035,6.035,0,0,0,285.3,273.065Zm-6.033,48.266H182.733v-36.2h96.533v36.2Z" transform="translate(-170.667 -273.065)"/></g><g transform="translate(156.866 217.199)"><path class="b" d="M264.1,307.2H227.9a6.033,6.033,0,1,0,0,12.066h36.2a6.033,6.033,0,1,0,0-12.066Z" transform="translate(-221.867 -307.198)"/></g><g transform="translate(42.234 144.799)"><path class="b" d="M138.167,204.8h-72.4a6.035,6.035,0,0,0-6.033,6.033v24.133A6.035,6.035,0,0,0,65.767,241h72.4a6.035,6.035,0,0,0,6.033-6.033V210.831A6.036,6.036,0,0,0,138.167,204.8Zm-6.034,24.133H71.8V216.864h60.333Z" transform="translate(-59.734 -204.798)"/></g><g transform="translate(0 66.366)"><path class="b" d="M24.133,93.865A24.133,24.133,0,1,0,48.266,118,24.157,24.157,0,0,0,24.133,93.865Zm0,36.2A12.067,12.067,0,1,1,36.2,118,12.079,12.079,0,0,1,24.133,130.065Z" transform="translate(0 -93.865)"/></g><g transform="translate(30.168 102.568)"><path class="b" d="M100.943,188.789,52.676,146.556a6.033,6.033,0,1,0-7.946,9.08L93,197.87a6.033,6.033,0,1,0,7.946-9.08Z" transform="translate(-42.668 -145.068)"/></g><g transform="translate(24.135 12.068)"><path class="b" d="M92.446,18.592a6.033,6.033,0,0,0-8.519.5L35.66,73.393a6.034,6.034,0,0,0,9.02,8.018l48.267-54.3A6.032,6.032,0,0,0,92.446,18.592Z" transform="translate(-34.135 -17.067)"/></g><g transform="translate(60.337 0.002)"><path class="b" d="M125.384,26.292,95.218,1.381a6.034,6.034,0,0,0-7.687,9.3L117.7,35.6a6.034,6.034,0,0,0,7.687-9.3Z" transform="translate(-85.339 -0.002)"/></g><g transform="translate(78.433 12.839)"><path class="b" d="M193.868,32.854a47.95,47.95,0,0,0-33.9-14.679,47.349,47.349,0,0,0-34.347,13.593,48.262,48.262,0,0,0-1.086,68.249,6.031,6.031,0,0,0,4.235,1.834h.1a6.089,6.089,0,0,0,4.2-1.7l60.671-58.77A6.039,6.039,0,0,0,193.868,32.854ZM129.353,86.943A36.214,36.214,0,0,1,159.188,30.23c.193,0,.392,0,.585.006a35.936,35.936,0,0,1,20.869,7.023Z" transform="translate(-110.933 -18.158)"/></g><g transform="translate(100.859 35.813)"><path class="b" d="M190.134,54.984l-4.2-4.332L142.652,92.584l4.2,4.332a30.132,30.132,0,1,0,43.283-41.932ZM168.493,94.049a17.882,17.882,0,0,1-8.054-1.9l24.5-23.729a17.939,17.939,0,0,1,1.653,7.53A18.122,18.122,0,0,1,168.493,94.049Z" transform="translate(-142.652 -50.652)"/></g><g transform="translate(283.602 96.532)"><path class="b" d="M454.984,140.429a6.027,6.027,0,0,0-5.641-3.9h-36.2a6.03,6.03,0,0,0-5.689,4.024,118.391,118.391,0,0,0,0,76.418A6.038,6.038,0,0,0,413.142,221h36.2a6.041,6.041,0,0,0,5.732-4.145C463.605,190.945,463.575,163.084,454.984,140.429Zm-10.094,68.5H417.516a106.7,106.7,0,0,1,0-60.333h27.542C450.79,166.577,450.729,188.551,444.889,208.931Z" transform="translate(-401.118 -136.531)"/></g><g transform="translate(307.699 48.266)"><path class="b" d="M441.233,68.265A6.035,6.035,0,0,0,435.2,74.3v48.267a6.033,6.033,0,1,0,12.066,0V74.3A6.035,6.035,0,0,0,441.233,68.265Z" transform="translate(-435.2 -68.265)"/></g><g transform="translate(277.533 66.366)"><path class="b" d="M398.567,93.865a6.033,6.033,0,1,0,0,12.066A24.157,24.157,0,0,1,422.7,130.064a6.033,6.033,0,1,0,12.066,0A36.235,36.235,0,0,0,398.567,93.865Z" transform="translate(-392.534 -93.865)"/></g><g transform="translate(307.699 66.366)"><path class="b" d="M471.4,93.865a36.236,36.236,0,0,0-36.2,36.2,6.033,6.033,0,0,0,12.066,0A24.157,24.157,0,0,1,471.4,105.932a6.033,6.033,0,0,0,0-12.067Z" transform="translate(-435.2 -93.865)"/></g><g transform="translate(150.833 144.799)"><path class="b" d="M315.9,204.8H219.367a6.035,6.035,0,0,0-6.033,6.033v24.133A6.035,6.035,0,0,0,219.367,241H315.9a6.035,6.035,0,0,0,6.033-6.033V210.831A6.035,6.035,0,0,0,315.9,204.8Zm-6.033,24.133H225.4V216.864h84.467Z" transform="translate(-213.334 -204.798)"/></g><g transform="translate(162.9 120.666)"><path class="b" d="M272.633,170.665H246.527A16.145,16.145,0,0,0,230.4,186.792v14.039a6.035,6.035,0,0,0,6.033,6.033h36.2a6.035,6.035,0,0,0,6.033-6.033V176.7A6.035,6.035,0,0,0,272.633,170.665ZM266.6,194.8H242.467v-8.012a4.06,4.06,0,0,1,4.06-4.054H266.6Z" transform="translate(-230.4 -170.665)"/></g><g transform="translate(199.099 120.666)"><path class="b" d="M313.739,170.665H287.633A6.035,6.035,0,0,0,281.6,176.7v24.133a6.035,6.035,0,0,0,6.033,6.033h36.2a6.035,6.035,0,0,0,6.033-6.033V186.785A16.142,16.142,0,0,0,313.739,170.665ZM317.8,194.8H293.667V182.731h20.073a4.062,4.062,0,0,1,4.06,4.06Z" transform="translate(-281.6 -170.665)"/></g><rect class="b" width="15" height="167" rx="7.5" transform="translate(0 194.002)"/><rect class="b" width="15" height="167" rx="7.5" transform="translate(347 194.002)"/></g></svg>