<svg xmlns="http://www.w3.org/2000/svg" width="108.078" height="99.531" viewBox="0 0 108.078 99.531"><defs><style>.a,.b,.c{fill:#4A6DFF;}.a{opacity:0.1;}.b{stroke:#4A6DFF;}</style></defs><g transform="translate(-1445.182 -460.996)"><path class="a" d="M51.664,8.977c37.01,33.744,49.154,27.661,45.881,49.976s-61.6,44.424-87.823,15.44S14.654-24.767,51.664,8.977Z" transform="translate(1445.182 472.946) rotate(-7)"/><g transform="translate(-1)"><path class="b" d="M4.446,11.783A2.453,2.453,0,0,0,2,14.229v31.8a4.906,4.906,0,0,0,4.892,4.892h31.8a2.446,2.446,0,1,0,0-4.892H9.338a2.453,2.453,0,0,1-2.446-2.446V14.229A2.453,2.453,0,0,0,4.446,11.783Z" transform="translate(1471.999 493.083)"/><path class="c" d="M47.025,2H15.675a4.906,4.906,0,0,0-4.892,4.892v29.35a4.906,4.906,0,0,0,4.892,4.892h31.35a4.906,4.906,0,0,0,4.892-4.892V6.892A4.906,4.906,0,0,0,47.025,2ZM33.35,28.8H21.567a2.446,2.446,0,1,1,0-4.892H33.35a2.446,2.446,0,0,1,0,4.892Zm7.783-10.567H21.567a2.446,2.446,0,0,1,0-4.892H41.133a2.446,2.446,0,0,1,0,4.892Z" transform="translate(1473 493.083)"/></g></g></svg>