<svg xmlns="http://www.w3.org/2000/svg" width="40" height="40" viewBox="0 0 40 40"><defs><style>.a,.b{fill:#0ecbfd;}.a{opacity:0.15;}</style></defs><g transform="translate(11.778 12.562)"><rect class="a" width="40" height="40" rx="9" transform="translate(-11.778 -12.562)"/><g transform="translate(5.888 3.339)"><g transform="translate(0 0)"><path class="b" d="M226.974,156.157c-.854-.876-2.149-1.28-4.073-1.28a7.126,7.126,0,0,0-3.878,1.378c-.045.03-.09.06-.127.09V155.8a1.2,1.2,0,0,0-2.4,0v3.474a1.239,1.239,0,0,0,.022.24l-.015,7.077a1.2,1.2,0,1,0,2.4,0l.015-7.018a6.107,6.107,0,0,1,3.983-2.3,3.469,3.469,0,0,1,2.366.562c.539.547.524,1.872.5,3.556-.008.337-.008.689-.008,1.056v4.592a1.2,1.2,0,0,0,2.4,0v-4.584c0-.352.007-.7.007-1.026C228.187,159.272,228.21,157.415,226.974,156.157Z" transform="translate(-216.5 -154.6)"/></g></g><g transform="translate(0.172 3.347)"><g transform="translate(0 0)"><path class="b" d="M109.5,154.7a1.2,1.2,0,0,0-1.2,1.2v10.763a1.2,1.2,0,0,0,2.4,0V155.9A1.2,1.2,0,0,0,109.5,154.7Z" transform="translate(-108.3 -154.7)"/></g></g><g transform="translate(0 0)"><path class="b" d="M107.363,110a1.355,1.355,0,1,0,1.355,1.37v-.015A1.35,1.35,0,0,0,107.363,110Z" transform="translate(-106 -110)"/></g></g></svg>