<svg xmlns="http://www.w3.org/2000/svg" width="98.16" height="41.818" viewBox="0 0 98.16 41.818">
  <g id="Group_2829" data-name="Group 2829" transform="translate(-401.712 -210.694)">
    <path id="Path_8107" data-name="Path 8107" d="M22.355-51.2a17.291,17.291,0,0,1-6.611-1.248,15.921,15.921,0,0,1-5.293-3.49,15.921,15.921,0,0,1-3.49-5.293,17.291,17.291,0,0,1-1.248-6.611A17.291,17.291,0,0,1,6.96-74.458a15.921,15.921,0,0,1,3.49-5.293,15.921,15.921,0,0,1,5.293-3.49,17.291,17.291,0,0,1,6.611-1.248,19.28,19.28,0,0,1,4.739.578,13.765,13.765,0,0,1,4.091,1.734,1.577,1.577,0,0,1,.485.532,1.3,1.3,0,0,1,.162.624,1.364,1.364,0,0,1-.416,1.04,1.269,1.269,0,0,1-.878.393,1.38,1.38,0,0,1-.439-.069,3,3,0,0,1-.393-.162,15.3,15.3,0,0,0-3.421-1.387,14.761,14.761,0,0,0-3.929-.509,13.8,13.8,0,0,0-7.073,1.8,12.9,12.9,0,0,0-4.854,4.947,14.342,14.342,0,0,0-1.757,7.119,14.342,14.342,0,0,0,1.757,7.119,12.9,12.9,0,0,0,4.854,4.947,13.8,13.8,0,0,0,7.073,1.8,15.171,15.171,0,0,0,4.184-.6A12.88,12.88,0,0,0,30.167-56.2l-.231.971V-65.86l.693.647h-8a1.383,1.383,0,0,1-1.017-.416A1.331,1.331,0,0,1,21.2-66.6a1.291,1.291,0,0,1,.416-1.017,1.476,1.476,0,0,1,1.017-.37h8.83a1.347,1.347,0,0,1,.994.393,1.347,1.347,0,0,1,.393.994v11.141a1.375,1.375,0,0,1-.185.693,1.739,1.739,0,0,1-.509.555,17.558,17.558,0,0,1-4.554,2.2A17.056,17.056,0,0,1,22.355-51.2Z" transform="translate(396 299.184)" fill="#fff"/>
    <g id="Group_2828" data-name="Group 2828" transform="translate(457.975 211)">
      <g id="Group_2840" data-name="Group 2840" transform="translate(0 0)">
        <path id="Path_8091" data-name="Path 8091" d="M2.359,9.1A1.358,1.358,0,0,1,.6,9.384,1.257,1.257,0,0,1,.083,7.858c.063-.176,3.9-5.545,3.9-5.545A20.938,20.938,0,0,1,5.472.471,1.31,1.31,0,0,1,7.009.118,1.377,1.377,0,0,1,7.838,1.51q0,4.131,0,8.262,0,13.56,0,27.12a5.371,5.371,0,0,1-.02.691,1.34,1.34,0,0,1-1.408,1.19,1.3,1.3,0,0,1-1.245-1.307c-.018-1.629-.011-3.258-.012-4.888,0-9.17-.022-18.186-.022-27.356L4.383,6.314S2.821,8.642,2.359,9.1Z" transform="translate(27.418 0) rotate(45)" fill="#0ecbfd" stroke="#0ecbfd" stroke-width="0.4"/>
        <path id="Path_8114" data-name="Path 8114" d="M.013,7.172C.077,7,2.692,4.492,2.692,4.492L6.714.471A1.31,1.31,0,0,1,8.25.118,1.377,1.377,0,0,1,9.079,1.51q0,4.131,0,8.262,0,13.56,0,27.12a5.371,5.371,0,0,1-.02.691,1.34,1.34,0,0,1-1.408,1.19,1.3,1.3,0,0,1-1.245-1.307c-.018-1.629-.011-3.258-.012-4.888,0-9.17-.022-18.186-.022-27.356,0,0-.071-.059-2.118,1.97S-.2,7.762.013,7.172Z" transform="translate(14.192 41.221) rotate(-135)" fill="#0ecbfd" stroke="#0ecbfd" stroke-width="0.4"/>
      </g>
    </g>
    <path id="Path_8106" data-name="Path 8106" d="M12.573-83.3H29.539a1.369,1.369,0,0,1,.971.393,1.309,1.309,0,0,1,.416.994,1.237,1.237,0,0,1-.416.971,1.416,1.416,0,0,1-.971.37h-15.9l.462-.786v12.99l-.509-.6H27.459a1.331,1.331,0,0,1,.971.416,1.331,1.331,0,0,1,.416.971,1.237,1.237,0,0,1-.416.971,1.416,1.416,0,0,1-.971.37H13.682L14.1-66.7V-53.39l-.231-.277H29.539a1.331,1.331,0,0,1,.971.416,1.331,1.331,0,0,1,.416.971,1.237,1.237,0,0,1-.416.971,1.416,1.416,0,0,1-.971.37H12.573a1.331,1.331,0,0,1-.971-.416,1.331,1.331,0,0,1-.416-.971V-81.913a1.331,1.331,0,0,1,.416-.971A1.331,1.331,0,0,1,12.573-83.3Z" transform="translate(426.897 298.457)" fill="#fff"/>
    <path id="Path_8115" data-name="Path 8115" d="M10.946,10.928-1-1" transform="translate(464.398 218.021)" fill="none" stroke="#0ecbfd" stroke-linecap="round" stroke-width="3.7" opacity="0.6"/>
    <path id="Path_8116" data-name="Path 8116" d="M10.449,10.517-1-1" transform="translate(481.398 235.021)" fill="none" stroke="#0ecbfd" stroke-linecap="round" stroke-width="3.7" opacity="0.6"/>
  </g>
</svg>
