<svg xmlns="http://www.w3.org/2000/svg" width="230.745" height="68.454" viewBox="0 0 230.745 68.454">
  <g id="Cryptal_Logo" data-name="Cryptal Logo" transform="translate(-5 -6.204)">
    <path id="Path_8489" data-name="Path 8489" d="M14.258-28.2a9.09,9.09,0,0,1,4.233.816,2.372,2.372,0,0,1,1.53,2.04,1.789,1.789,0,0,1-.051.51A1.974,1.974,0,0,1,17.93-23.2a4.3,4.3,0,0,1-.765-.1,20.1,20.1,0,0,0-3.315-.357,9.615,9.615,0,0,0-5.916,1.683A5.38,5.38,0,0,0,5.69-17.442V-2.55A2.614,2.614,0,0,1,5.052-.663,2.537,2.537,0,0,1,3.14,0,2.614,2.614,0,0,1,1.253-.637,2.537,2.537,0,0,1,.59-2.55v-22.8a2.553,2.553,0,0,1,.663-1.887A2.553,2.553,0,0,1,3.14-27.9a2.254,2.254,0,0,1,1.912.638A2.254,2.254,0,0,1,5.69-25.35v.969a10.76,10.76,0,0,1,3.774-2.805A11.449,11.449,0,0,1,14.258-28.2Zm38.425.561a2.089,2.089,0,0,1,1.581,1.989,3.212,3.212,0,0,1-.306,1.224L38.352,10.659a2.089,2.089,0,0,1-1.989,1.581,3.211,3.211,0,0,1-1.224-.306,2.139,2.139,0,0,1-1.53-1.989,2.716,2.716,0,0,1,.306-1.224l5.1-11.475L27.54-24.531a2.17,2.17,0,0,1-.255-1.071,2.037,2.037,0,0,1,.408-1.224,2.691,2.691,0,0,1,1.071-.867,2.484,2.484,0,0,1,1.02-.2,2.287,2.287,0,0,1,2.142,1.428l9.333,18.56L49.47-26.418A2.131,2.131,0,0,1,51.459-27.9a2.923,2.923,0,0,1,1.224.258ZM74.868-28.1a14.122,14.122,0,0,1,7.166,1.861,13.413,13.413,0,0,1,5.075,5.1,14.374,14.374,0,0,1,1.836,7.216,15.225,15.225,0,0,1-1.709,7.217,12.882,12.882,0,0,1-4.692,5.074A12.446,12.446,0,0,1,75.888.2,12.562,12.562,0,0,1,70.38-1.02a12.494,12.494,0,0,1-4.335-3.417V9.333a2.652,2.652,0,0,1-4.463,1.887,2.5,2.5,0,0,1-.739-1.887V-13.923A14.22,14.22,0,0,1,62.7-21.139a13.713,13.713,0,0,1,5.049-5.1A13.846,13.846,0,0,1,74.868-28.1Zm0,23.715a8.743,8.743,0,0,0,4.616-1.249,9.011,9.011,0,0,0,3.264-3.417,9.894,9.894,0,0,0,1.2-4.871,10.04,10.04,0,0,0-1.2-4.9,8.961,8.961,0,0,0-3.264-3.443,8.743,8.743,0,0,0-4.616-1.249,8.743,8.743,0,0,0-4.615,1.249,8.776,8.776,0,0,0-3.239,3.443,10.215,10.215,0,0,0-1.173,4.9,10.066,10.066,0,0,0,1.173,4.871,8.822,8.822,0,0,0,3.239,3.417,8.743,8.743,0,0,0,4.615,1.248Zm35.7-.714a2.008,2.008,0,0,1,1.556.714,2.653,2.653,0,0,1,.637,1.836,2.3,2.3,0,0,1-.841,1.836A3.234,3.234,0,0,1,109.752,0h-.918a8.4,8.4,0,0,1-4.564-1.3,9.059,9.059,0,0,1-3.239-3.544,10.733,10.733,0,0,1-1.173-5.049v-12.6H97.512a2.455,2.455,0,0,1-1.734-.612,2,2,0,0,1-.663-1.53,2.114,2.114,0,0,1,.663-1.632,2.455,2.455,0,0,1,1.734-.612h2.346v-7.344a2.485,2.485,0,0,1,.714-1.836,2.485,2.485,0,0,1,1.836-.714,2.485,2.485,0,0,1,1.836.714,2.485,2.485,0,0,1,.714,1.836v7.344h4.335a2.455,2.455,0,0,1,1.734.612,2.114,2.114,0,0,1,.663,1.632,2,2,0,0,1-.663,1.53,2.455,2.455,0,0,1-1.734.612h-4.335v12.6a5.233,5.233,0,0,0,1.122,3.417A3.428,3.428,0,0,0,108.834-5.1Z" transform="translate(68.001 62.418)" fill="#fff"/>
    <path id="Subtraction_1" data-name="Subtraction 1" d="M-3204.241,1312.984a15.124,15.124,0,0,1-7.358-1.785,12.938,12.938,0,0,1-4.692-5.075,15.282,15.282,0,0,1-1.708-7.216,14.446,14.446,0,0,1,1.835-7.216,13.482,13.482,0,0,1,5.075-5.1,14.023,14.023,0,0,1,6.254-1.836l-.04.014h.006a2.781,2.781,0,0,1,2.04,2,2.661,2.661,0,0,1-1.389,2.536l.054.016a8.737,8.737,0,0,0-4.376,1.246,9,9,0,0,0-3.263,3.443,10.081,10.081,0,0,0-1.2,4.9,9.937,9.937,0,0,0,1.2,4.871,9.04,9.04,0,0,0,3.263,3.417,11.42,11.42,0,0,0,5.319,1.2c.225,0,.446-.007.659-.019a2.094,2.094,0,0,1,1.892,2,2.591,2.591,0,0,1-1.765,2.456h.2A13.506,13.506,0,0,1-3204.241,1312.984Zm11.741-.1a2.536,2.536,0,0,1-1.862-.74,2.537,2.537,0,0,1-.74-1.861v-.581c.039-1.008.118-3.13.2-6.016.037-.742.08-4.955,0-5.535l-.02.026a10.067,10.067,0,0,0-1.151-4.163,8.866,8.866,0,0,0-2.616-3.03l.031.01a2.482,2.482,0,0,1-.675-3,1.994,1.994,0,0,1,1.979-1.168,4.228,4.228,0,0,1,1.23.2,13.772,13.772,0,0,1,4.361,4.672,14.289,14.289,0,0,1,1.861,7.216v11.373a2.532,2.532,0,0,1-.74,1.861,2.536,2.536,0,0,1-1.859.734Zm19.074-.051h-.1a6.889,6.889,0,0,1-3.953-1.2,7.84,7.84,0,0,1-2.728-3.365,11.868,11.868,0,0,1-.969-4.871V1275.55a2.5,2.5,0,0,1,.714-1.836,2.5,2.5,0,0,1,1.836-.715,2.5,2.5,0,0,1,1.836.715,2.5,2.5,0,0,1,.714,1.836v27.85a6.126,6.126,0,0,0,.715,3.11,2.111,2.111,0,0,0,1.836,1.224h1.275a2.127,2.127,0,0,1,1.657.714,2.663,2.663,0,0,1,.638,1.836,2.2,2.2,0,0,1-.969,1.836,4.125,4.125,0,0,1-2.5.711Z" transform="translate(3405.698 -1250.413)" fill="#fff"/>
    <path id="Subtraction_3" data-name="Subtraction 3" d="M6.628,12.756h0l-2.438-2.4c-.111-.116-.235-.231-.366-.353C3.248,9.469,2.6,8.865,2.956,8A7.824,7.824,0,0,1,5.312,5.525l.044-.033A28.458,28.458,0,0,1,17.422.234,15.605,15.605,0,0,1,19.791,0a2.306,2.306,0,0,1,1.257.234c.639.476.678,1.081.763,2.406l.147,3.57a22.4,22.4,0,0,0-15.33,6.546Z" transform="translate(11.001 6.215)" fill="#398dff"/>
    <path id="Subtraction_2" data-name="Subtraction 2" d="M-4276.567,1502.557a28.261,28.261,0,0,1-11.066-2.234,28.336,28.336,0,0,1-9.039-6.094,28.339,28.339,0,0,1-6.094-9.038,28.26,28.26,0,0,1-2.234-11.067,28.323,28.323,0,0,1,4.527-15.4,1.81,1.81,0,0,1,1.338-.821,1.83,1.83,0,0,1,.192-.01,1.816,1.816,0,0,1,1.287.532l2.951,2.95A22.333,22.333,0,0,0-4299,1474.6a22.372,22.372,0,0,0,1.769,8.758,22.424,22.424,0,0,0,4.821,7.152,22.432,22.432,0,0,0,7.152,4.822,22.364,22.364,0,0,0,8.757,1.768,22.388,22.388,0,0,0,12.54-3.816,22.509,22.509,0,0,0,8.153-9.836,3.016,3.016,0,0,1,2.417-1.461,2.886,2.886,0,0,1,.778.112,2.451,2.451,0,0,1,1.682,1.381,4.074,4.074,0,0,1-.024,2.864,29.874,29.874,0,0,1-10.52,11.818A27.939,27.939,0,0,1-4276.567,1502.557Z" transform="translate(4310 -1439.682)" fill="#0ecbfd"/>
    <path id="Subtraction_4" data-name="Subtraction 4" d="M-4261.195,1396.9a4.03,4.03,0,0,1-2.964-1.539l-.07.105a22.475,22.475,0,0,0-6.687-6.16,22.253,22.253,0,0,0-8.781-3.035v-4.351a1.811,1.811,0,0,1,.654-1.395,1.814,1.814,0,0,1,1.166-.425,1.8,1.8,0,0,1,.32.028,28.957,28.957,0,0,1,10.7,4.255,27.4,27.4,0,0,1,7.78,7.649,4.324,4.324,0,0,1,.452,3.3,2.189,2.189,0,0,1-1.493,1.4A3.537,3.537,0,0,1-4261.195,1396.9Z" transform="translate(4316.001 -1373.679)" fill="#4a6dff"/>
  </g>
</svg>
