<svg xmlns="http://www.w3.org/2000/svg" width="99.123" height="29.667" viewBox="0 0 99.123 29.667">
  <g id="Cryptal" transform="translate(-851.104 -68.452)">
    <g id="Group_3436" data-name="Group 3436" transform="translate(885.973 78.162)">
      <path id="Path_184" data-name="Path 184" d="M2.72-15.354v-5.8a2.041,2.041,0,0,1,2.31-2.31H9.286l.679.528v.619H5.014a.907.907,0,0,0-.769.257.907.907,0,0,0-.256.77v6.069a.907.907,0,0,0,.256.77.907.907,0,0,0,.769.257H9.966v.619l-.679.528H5.03A2.041,2.041,0,0,1,2.72-15.354Zm9.661,2.31V-23.46h4.936a2.041,2.041,0,0,1,2.31,2.31v1.659a1.987,1.987,0,0,1-1.675,2.264l1.978,3.88-.166.3H18.689l-2.1-4.136H13.649v4.136Zm1.268-5.284h3.682a.907.907,0,0,0,.771-.256.907.907,0,0,0,.257-.771v-1.932a.907.907,0,0,0-.257-.77.907.907,0,0,0-.77-.257H13.651Zm7.638-4.859.166-.272h1.074l2.838,5.268L28.2-23.458h1.074l.166.272L26-16.908v3.864H24.73v-3.864ZM31.4-13.044V-23.46h4.936a2.041,2.041,0,0,1,2.31,2.31v1.962a2.041,2.041,0,0,1-2.31,2.31H32.67v3.836Zm1.268-4.981h3.682a.907.907,0,0,0,.77-.257.907.907,0,0,0,.257-.77v-2.235a.907.907,0,0,0-.257-.77.907.907,0,0,0-.77-.257H32.67Zm7.548-4.287V-23.46H48.43v1.147H44.958v9.269H43.69v-9.269Z" transform="translate(-2.72 23.46)" fill="#fff"/>
      <path id="Path_183" data-name="Path 183" d="M.68-13.315,4.092-23.46H6.175L9.586-13.315l-.181.272H8.362L7.5-15.671H2.763L1.9-13.044H.861Zm2.461-3.5H7.126L5.314-22.313H4.952Zm8.408,3.774V-23.46h1.268v9.269h5.072v1.147Z" transform="translate(46.365 23.46)" fill="#fff"/>
    </g>
    <g id="Group_3438" data-name="Group 3438" transform="translate(851.104 68.452)">
      <path id="Path_161" data-name="Path 161" d="M0-9,12.467-2.072V14.55L0,7.623Z" transform="translate(0 15.113)" fill="#6582fd"/>
      <path id="Path_163" data-name="Path 163" d="M10.636,53.612,23.1,59.155,9.928,65.267-2.214,58.61Z" transform="translate(3.278 -53.612)" fill="#4a6dff"/>
      <path id="Path_162" data-name="Path 162" d="M-5.819-15.141,5.263-8.213-5.819-1.284Z" transform="translate(19.843 30.951)" fill="#4a6dff" opacity="0.5"/>
    </g>
  </g>
</svg>
