<svg xmlns="http://www.w3.org/2000/svg" width="46" height="46" viewBox="0 0 46 46"><defs><style>.a,.b{fill:#4A6DFF;}.a{opacity:0.15;}</style></defs><g transform="translate(0 0.392)"><rect class="a" width="46" height="46" rx="9" transform="translate(0 -0.392)"/><g transform="translate(20.143 18.13)"><g transform="translate(0 0)"><path class="b" d="M228.443,156.376c-.973-1-2.45-1.46-4.644-1.46a8.125,8.125,0,0,0-4.422,1.571c-.051.034-.1.068-.145.1v-.623a1.366,1.366,0,0,0-2.732,0v3.961a1.413,1.413,0,0,0,.026.273l-.017,8.07a1.366,1.366,0,1,0,2.732,0l.017-8c.751-1.033,2.851-2.621,4.541-2.621a3.956,3.956,0,0,1,2.7.64c.615.623.6,2.134.572,4.055-.009.384-.009.785-.009,1.2v5.235a1.366,1.366,0,0,0,2.732,0v-5.227c0-.4.009-.794.009-1.17C229.826,159.927,229.851,157.81,228.443,156.376Z" transform="translate(-216.5 -154.6)"/></g></g><g transform="translate(13.626 18.138)"><g transform="translate(0 0)"><path class="b" d="M109.666,154.7a1.37,1.37,0,0,0-1.366,1.366v12.272a1.366,1.366,0,0,0,2.732,0V156.066A1.364,1.364,0,0,0,109.666,154.7Z" transform="translate(-108.3 -154.7)"/></g></g><g transform="translate(13.43 14.323)"><path class="b" d="M107.554,110a1.545,1.545,0,1,0,1.545,1.562v-.017A1.539,1.539,0,0,0,107.554,110Z" transform="translate(-106 -110)"/></g></g></svg>