<svg xmlns="http://www.w3.org/2000/svg" width="45.608" height="45.608" viewBox="0 0 45.608 45.608"><defs><style>.a,.b{fill:#4A6DFF;}.a{opacity:0.15;}</style></defs><path class="a" d="M10.262,0H35.346A10.262,10.262,0,0,1,45.608,10.262V35.346A10.262,10.262,0,0,1,35.346,45.608H10.262A10.262,10.262,0,0,1,0,35.346V10.262A10.262,10.262,0,0,1,10.262,0Z" transform="translate(0 0)"/><path class="b" d="M125.793,74.952h-2.476a5.622,5.622,0,0,0-5.616,5.616v2.295h-2.217a1.6,1.6,0,1,0,0,3.192H117.7v6.278a1.6,1.6,0,0,0,3.192,0V86.055h4.146a1.6,1.6,0,1,0,0-3.192h-4.146V80.568a2.427,2.427,0,0,1,2.424-2.424h2.475a1.6,1.6,0,0,0,0-3.192Z" transform="translate(-97 -60.629)"/></svg>